<svg width="1728" height="1117" viewBox="0 0 1728 1117" fill="none" xmlns="http://www.w3.org/2000/svg">
<g opacity="0.2" clip-path="url(#clip0_36_212)">
<line x1="0.5" y1="2.18557e-08" x2="0.499951" y2="1117" stroke="white"/>
<line x1="60.5" y1="2.18557e-08" x2="60.5" y2="1117" stroke="white"/>
<line x1="120.5" y1="2.18557e-08" x2="120.5" y2="1117" stroke="white"/>
<line x1="180.5" y1="2.18557e-08" x2="180.5" y2="1117" stroke="white"/>
<line x1="240.5" y1="2.18557e-08" x2="240.5" y2="1117" stroke="white"/>
<line x1="300.5" y1="2.18557e-08" x2="300.5" y2="1117" stroke="white"/>
<line x1="360.5" y1="2.18557e-08" x2="360.5" y2="1117" stroke="white"/>
<line x1="420.5" y1="2.18557e-08" x2="420.5" y2="1117" stroke="white"/>
<line x1="480.5" y1="2.18557e-08" x2="480.5" y2="1117" stroke="white"/>
<line x1="540.5" y1="2.18557e-08" x2="540.5" y2="1117" stroke="white"/>
<line x1="600.5" y1="2.18557e-08" x2="600.5" y2="1117" stroke="white"/>
<line x1="660.5" y1="2.18557e-08" x2="660.5" y2="1117" stroke="white"/>
<line x1="720.501" y1="2.18557e-08" x2="720.501" y2="1117" stroke="white"/>
<line x1="780.501" y1="2.18557e-08" x2="780.501" y2="1117" stroke="white"/>
<line x1="840.501" y1="2.18557e-08" x2="840.501" y2="1117" stroke="white"/>
<line x1="900.501" y1="2.18557e-08" x2="900.501" y2="1117" stroke="white"/>
<line x1="960.501" y1="2.18557e-08" x2="960.501" y2="1117" stroke="white"/>
<line x1="1020.5" y1="2.18557e-08" x2="1020.5" y2="1117" stroke="white"/>
<line x1="1080.5" y1="2.18557e-08" x2="1080.5" y2="1117" stroke="white"/>
<line x1="1140.5" y1="2.18557e-08" x2="1140.5" y2="1117" stroke="white"/>
<line x1="1200.5" y1="2.18557e-08" x2="1200.5" y2="1117" stroke="white"/>
<line x1="1260.5" y1="2.18557e-08" x2="1260.5" y2="1117" stroke="white"/>
<line x1="1320.5" y1="2.18557e-08" x2="1320.5" y2="1117" stroke="white"/>
<line x1="1380.5" y1="2.18557e-08" x2="1380.5" y2="1117" stroke="white"/>
<line x1="1440.5" y1="2.18557e-08" x2="1440.5" y2="1117" stroke="white"/>
<line x1="1500.5" y1="2.18557e-08" x2="1500.5" y2="1117" stroke="white"/>
<line x1="1560.5" y1="2.18557e-08" x2="1560.5" y2="1117" stroke="white"/>
<line x1="1620.5" y1="2.18557e-08" x2="1620.5" y2="1117" stroke="white"/>
<line x1="1680.5" y1="2.18557e-08" x2="1680.5" y2="1117" stroke="white"/>
</g>
<g opacity="0.2" clip-path="url(#clip1_36_212)">
<line x1="-216" y1="1073.5" x2="2136" y2="1073.5" stroke="white"/>
<line x1="-216" y1="1013.5" x2="2136" y2="1013.5" stroke="white"/>
<line x1="-216" y1="953.501" x2="2136" y2="953.501" stroke="white"/>
<line x1="-216" y1="893.501" x2="2136" y2="893.501" stroke="white"/>
<line x1="-216" y1="833.501" x2="2136" y2="833.501" stroke="white"/>
<line x1="-216" y1="773.501" x2="2136" y2="773.501" stroke="white"/>
<line x1="-216" y1="713.501" x2="2136" y2="713.501" stroke="white"/>
<line x1="-216" y1="653.501" x2="2136" y2="653.501" stroke="white"/>
<line x1="-216" y1="593.5" x2="2136" y2="593.501" stroke="white"/>
<line x1="-216" y1="533.5" x2="2136" y2="533.5" stroke="white"/>
<line x1="-216" y1="473.5" x2="2136" y2="473.5" stroke="white"/>
<line x1="-216" y1="413.5" x2="2136" y2="413.5" stroke="white"/>
<line x1="-216" y1="353.5" x2="2136" y2="353.5" stroke="white"/>
<line x1="-216" y1="293.5" x2="2136" y2="293.5" stroke="white"/>
<line x1="-216" y1="233.5" x2="2136" y2="233.5" stroke="white"/>
<line x1="-216" y1="173.5" x2="2136" y2="173.5" stroke="white"/>
<line x1="-216" y1="113.5" x2="2136" y2="113.5" stroke="white"/>
<line x1="-216" y1="53.5001" x2="2136" y2="53.5002" stroke="white"/>
</g>
<g opacity="0.5" filter="url(#filter0_f_36_212)">
<ellipse cx="608.587" cy="801.534" rx="307" ry="120" transform="rotate(-33.206 608.587 801.534)" fill="#B6FFFB"/>
<ellipse cx="799.589" cy="740.771" rx="307" ry="120" transform="rotate(-107.239 799.589 740.771)" fill="#DDFFB1"/>
<ellipse cx="1038.51" cy="713.132" rx="307" ry="200.656" transform="rotate(-71.2966 1038.51 713.132)" fill="#FFA6A6"/>
</g>
<defs>
<filter id="filter0_f_36_212" x="133.381" y="205.247" width="1329.21" height="1040.91" filterUnits="userSpaceOnUse" color-interpolation-filters="sRGB">
<feFlood flood-opacity="0" result="BackgroundImageFix"/>
<feBlend mode="normal" in="SourceGraphic" in2="BackgroundImageFix" result="shape"/>
<feGaussianBlur stdDeviation="105" result="effect1_foregroundBlur_36_212"/>
</filter>
<clipPath id="clip0_36_212">
<rect width="1740" height="1117" fill="white"/>
</clipPath>
<clipPath id="clip1_36_212">
<rect width="1320" height="2352" fill="white" transform="matrix(0 -1 1 0 -216 1194)"/>
</clipPath>
</defs>
</svg>
