<svg width="70" height="56" viewBox="0 0 70 56" fill="none" xmlns="http://www.w3.org/2000/svg">
<g clip-path="url(#clip0_36_204)">
<path fill-rule="evenodd" clip-rule="evenodd" d="M48.7002 0.157603C48.921 4.43577 48.8345 9.32233 48.7002 13.7713C44.1592 13.906 39.4239 13.8162 34.7336 13.8153C31.1943 13.8144 27.7123 13.7132 24.5122 13.8153C23.3789 13.8514 22.2121 13.8946 21.1203 13.6841C20.8279 10.3507 21.2033 6.74081 21.0762 3.36424C21.0338 2.2487 20.9587 1.13668 21.1645 0.11446C30.1193 -0.0528276 39.5767 -0.0352183 48.7002 0.157603Z" fill="white"/>
<path fill-rule="evenodd" clip-rule="evenodd" d="M0.280585 0.0255354C4.73061 0.0836459 9.41471 -0.091566 13.7181 0.113582C13.8753 17.5282 13.8055 34.9156 13.8064 52.5046C13.8064 53.6342 13.9142 54.777 13.6739 55.8855C9.36083 56.0123 4.34814 56.0775 0.10481 55.8415C-0.0559491 38.1777 0.0147142 19.747 0.0164808 1.73803C0.0164808 1.14284 -0.0488828 0.324012 0.148975 0.112701C0.180773 0.0730804 0.229354 0.047547 0.280585 0.0255354Z" fill="white"/>
<path fill-rule="evenodd" clip-rule="evenodd" d="M69.9346 0.157594C69.9894 18.4166 70.0689 37.8149 69.8904 55.9304C65.4254 56.0035 60.6539 56.0035 56.1888 55.9304C55.9486 54.8281 56.0563 53.6712 56.0563 52.5495C56.0581 37.409 56.0563 22.2299 56.0563 6.96532C56.0572 4.66908 55.9503 2.37019 56.1888 0.114451C59.6328 0.0695478 63.0776 0.0264052 66.4536 0.0264052C67.6592 0.0255247 68.849 -0.0739674 69.9346 0.157594Z" fill="white"/>
<path fill-rule="evenodd" clip-rule="evenodd" d="M48.7 21.1496C48.8448 25.4779 48.8466 30.4332 48.7 34.8073C44.4098 35.0477 39.7363 34.8513 35.0416 34.8513C30.3575 34.8513 25.6151 34.9244 21.1201 34.7633C20.9602 31.5108 21.0317 27.7918 21.0317 24.2682C21.0317 23.5207 20.8118 21.1346 21.34 21.0624C22.3319 20.9259 23.7867 21.0184 25.041 21.0184C32.7486 21.0175 41.2432 20.9418 48.7 21.1496Z" fill="white"/>
<path fill-rule="evenodd" clip-rule="evenodd" d="M48.7001 42.2287C48.868 46.697 48.8379 51.2974 48.7001 55.9304C42.1647 56.0801 34.8466 55.9304 27.9048 55.9304C25.5738 55.9304 23.2922 56.0625 21.1202 55.8424C20.9736 51.4938 20.9736 46.5341 21.1202 42.1847C30.0839 42.0121 39.3999 42.0244 48.7001 42.2287Z" fill="white"/>
</g>
<defs>
<clipPath id="clip0_36_204">
<rect width="70" height="56" fill="white"/>
</clipPath>
</defs>
</svg>
